<?xml version="1.0" encoding="utf-8"?>
<!-- Generator: Adobe Illustrator 19.1.0, SVG Export Plug-In . SVG Version: 6.00 Build 0)  -->
<svg version="1.1" id="Layer_1" focusable="false" xmlns="http://www.w3.org/2000/svg" xmlns:xlink="http://www.w3.org/1999/xlink"
	 x="0px" y="0px" viewBox="-255 25 448 512" style="enable-background:new -255 25 448 512;" xml:space="preserve">
<style type="text/css">
	.st0{fill:#E37222;stroke:#FFFFFF;stroke-width:15;stroke-miterlimit:10;}
</style>
<path class="st0" d="M186,378.2V56c0-12.8-10.3-23-23.2-23h-317c-51.2,0-92.8,41.2-92.8,92.1v306.9c0,50.8,41.6,92.1,92.8,92.1h317
	c12.9,0,23.2-10.3,23.2-23v-15.3c0-7.2-3.4-13.7-8.6-17.9c-4.1-14.8-4.1-56.9,0-71.6C182.6,391.9,186,385.4,186,378.2L186,378.2z
	 M-123.3,161.5c0-3.2,2.6-5.8,5.8-5.8H87.4c3.2,0,5.8,2.6,5.8,5.8v19.2c0,3.2-2.6,5.8-5.8,5.8h-204.9c-3.2,0-5.8-2.6-5.8-5.8V161.5z
	 M-123.3,222.9c0-3.2,2.6-5.8,5.8-5.8H87.4c3.2,0,5.8,2.6,5.8,5.8v19.2c0,3.2-2.6,5.8-5.8,5.8h-204.9c-3.2,0-5.8-2.6-5.8-5.8V222.9z
	 M121.6,462.6h-275.8c-17.1,0-30.9-13.7-30.9-30.7c0-16.9,13.9-30.7,30.9-30.7h275.8C119.8,417.6,119.8,446.2,121.6,462.6z"/>
</svg>
