<?xml version="1.0" encoding="utf-8"?>
<!-- Generator: Adobe Illustrator 19.1.0, SVG Export Plug-In . SVG Version: 6.00 Build 0)  -->
<svg version="1.1" id="Layer_1" focusable="false" xmlns="http://www.w3.org/2000/svg" xmlns:xlink="http://www.w3.org/1999/xlink"
	 x="0px" y="0px" viewBox="-191 25 576 512" style="enable-background:new -191 25 576 512;" xml:space="preserve">
<style type="text/css">
	.st0{fill:#E37222;stroke:#FCFCFC;stroke-width:20;stroke-miterlimit:10;}
</style>
<path class="st0" d="M351.3,60c-54.8,3.1-163.7,14.4-231,55.6c-4.6,2.8-7.3,7.9-7.3,13.2v363.9c0,11.5,12.6,18.9,23.3,13.5
	c69.2-34.8,169.2-44.3,218.7-46.9c16.9-0.9,30-14.4,30-30.7V90.8C385.1,73,369.7,59,351.3,60z M73.8,115.6
	C6.6,74.5-102.3,63.2-157.1,60c-18.4-1-33.8,13-33.8,30.7v337.9c0,16.2,13.1,29.8,30,30.7c49.5,2.6,149.6,12.1,218.8,47
	c10.6,5.4,23.2-1.9,23.2-13.5V128.6C81.1,123.3,78.5,118.5,73.8,115.6z"/>
</svg>
