<?xml version="1.0" encoding="utf-8"?>
<!-- Generator: Adobe Illustrator 19.1.0, SVG Export Plug-In . SVG Version: 6.00 Build 0)  -->
<svg version="1.1" id="Layer_1" focusable="false" xmlns="http://www.w3.org/2000/svg" xmlns:xlink="http://www.w3.org/1999/xlink"
	 x="0px" y="0px" viewBox="-223 25 512 512" style="enable-background:new -223 25 512 512;" xml:space="preserve">
<style type="text/css">
	.st0{fill:#FFFFFF;}
	.st1{fill:#E37222;stroke:#FFFFFF;stroke-width:20;stroke-miterlimit:10;}
</style>
<rect x="-92" y="85" class="st0" width="251" height="364"/>
<path class="st1" d="M33,33c-137,0-248,111.1-248,248c0,137,111,248,248,248s248-111,248-248C281,144.1,170,33,33,33z M33,143
	c23.2,0,42,18.8,42,42s-18.8,42-42,42s-42-18.8-42-42S9.8,143,33,143z M89,397c0,6.6-5.4,12-12,12h-88c-6.6,0-12-5.4-12-12v-24
	c0-6.6,5.4-12,12-12H1v-64h-12c-6.6,0-12-5.4-12-12v-24c0-6.6,5.4-12,12-12h64c6.6,0,12,5.4,12,12v100h12c6.6,0,12,5.4,12,12V397z"
	/>
</svg>
